<?xml version="1.0" encoding="iso-8859-1"?>
<!-- Uploaded to: SVG Repo, www.svgrepo.com, Generator: SVG Repo Mixer Tools -->
<svg version="1.1" id="Layer_1" xmlns="http://www.w3.org/2000/svg" xmlns:xlink="http://www.w3.org/1999/xlink" 
	 viewBox="0 0 512.001 512.001" xml:space="preserve">
<path style="fill:#616267;" d="M267.295,395.688c-4.627,0-9.221-1.898-12.527-5.619c-6.154-6.913-5.543-17.508,1.374-23.662
	c1.932-1.724,3.842-3.519,5.706-5.39c18.048-18.038,36.358-46.479,46.659-72.476c10.846-27.351,10.333-44.962,5.008-50.287
	c-6.548-6.548-6.552-17.158,0-23.7c6.547-6.547,17.154-6.547,23.7,0c17.32,17.328,57.667,11.893,93.273-23.7
	c31.35-31.35,42.196-73.136,24.191-93.159c-6.187-6.88-5.63-17.481,1.255-23.668c6.864-6.198,17.481-5.642,23.668,1.255
	c30.237,33.614,19.073,94.791-25.413,139.273c-27.523,27.523-65.478,47.933-103.573,42.054
	c-0.753,12.936-4.398,27.781-10.945,44.291c-12.046,30.373-32.779,62.487-54.101,83.808c-2.324,2.33-4.714,4.583-7.147,6.743
	C275.239,394.292,271.256,395.688,267.295,395.688z"/>
<path style="fill:#CC7400;" d="M162.542,487.435c-32.67-32.675-32.67-85.837,0-118.512c32.738-32.738,85.755-32.77,118.512,0
	c32.759,32.748,32.765,85.76,0,118.512l0,0l0,0C248.334,520.179,195.306,520.2,162.542,487.435z"/>
<path style="fill:#FFB655;" d="M221.802,478.48c-13.422,0-26.047-5.238-35.561-14.747c-19.598-19.609-19.598-51.504,0-71.113
	c9.516-9.504,22.14-14.741,35.561-14.741c13.422,0,26.036,5.233,35.54,14.741c9.526,9.516,14.764,22.139,14.764,35.556
	s-5.238,26.041-14.753,35.546C247.838,473.241,235.224,478.48,221.802,478.48z"/>
<path style="fill:#616267;" d="M446.291,490.134c-27.716,0-50.27-22.555-50.27-50.281v-33.521c0-9.259,7.508-16.76,16.76-16.76
	c9.253,0,16.761,7.502,16.761,16.76v33.521c0,9.242,7.519,16.76,16.749,16.76c9.242,0,16.772-7.519,16.772-16.76V73.646
	c0-9.259,7.508-16.761,16.761-16.761c9.253,0,16.76,7.502,16.76,16.761v366.206C496.583,467.578,474.018,490.134,446.291,490.134z"
	/>
<path style="fill:#816952;" d="M208.595,441.381l-47.405-47.405c-6.546-6.546-6.546-17.157,0-23.703l0,0
	c6.546-6.546,17.157-6.546,23.703,0l47.405,47.405c6.546,6.546,6.546,17.157,0,23.703l0,0
	C225.752,447.926,215.139,447.926,208.595,441.381z"/>
<path style="fill:#FF5F4A;" d="M157.238,279.411L18.971,417.678c-19.637,19.637-19.637,51.473,0,71.109
	c19.637,19.637,51.473,19.637,71.109,0L228.348,350.52L157.238,279.411z"/>
<path style="fill:#D8482B;" d="M18.971,488.786c19.637,19.637,51.473,19.637,71.109,0l138.267-138.267l-35.555-35.555
	L18.971,488.786z"/>
<rect x="193.867" y="157.45" transform="matrix(-0.7071 -0.7071 0.7071 -0.7071 230.3935 622.6302)" style="fill:#DFE2EF;" width="100.562" height="212.298"/>
<rect x="236.79" y="175.238" transform="matrix(0.7071 0.7071 -0.7071 0.7071 275.6883 -102.7969)" style="fill:#D5D7E5;" width="50.281" height="212.298"/>
<path style="fill:#DFE2EF;" d="M331.059,247.807l161.97-161.97c19.637-19.637,19.637-51.473,0-71.109
	c-19.637-19.637-51.473-19.637-71.109,0l-161.97,161.97L331.059,247.807z"/>
<path style="fill:#D5D7E5;" d="M331.059,247.807l161.97-161.97c19.637-19.637,19.637-51.473,0-71.109L295.505,212.252
	L331.059,247.807z"/>
<rect x="257.078" y="183.64" transform="matrix(-0.7071 -0.7071 0.7071 -0.7071 382.9891 559.4409)" style="fill:#85878D;" width="100.562" height="33.521"/>
<rect x="299.998" y="201.428" transform="matrix(0.7071 0.7071 -0.7071 0.7071 249.5136 -166.002)" style="fill:#7E7F85;" width="50.281" height="33.521"/>
</svg>